<svg width="65" height="65" viewBox="0 0 65 65" fill="none" xmlns="http://www.w3.org/2000/svg">
<g clip-path="url(#clip0_1_6)">
<path d="M36.9179 19.7718L35.6826 18.5998C35.4895 18.4055 35.2425 18.3137 34.9953 18.3444C34.7481 18.3752 34.5207 18.5259 34.3624 18.7639L17.2661 43.1652L17.5301 43.5286L21.7641 38.6764C21.623 38.6058 21.5062 38.476 21.4341 38.3096C21.362 38.1432 21.3391 37.9506 21.3694 37.7653C21.3996 37.58 21.4811 37.4138 21.5998 37.2955C21.7184 37.1772 21.8666 37.1142 22.0187 37.1176C22.1558 37.1176 22.2894 37.1722 22.3997 37.2735C22.51 37.3747 22.5913 37.5173 22.6316 37.6802L28.2141 31.2458C28.2996 31.1602 28.4061 31.1135 28.5159 31.1135C28.6257 31.1135 28.7321 31.1602 28.8176 31.2458L29.1005 31.5037C29.1962 31.5889 29.3141 31.6266 29.4311 31.6092C29.548 31.5919 29.6554 31.5208 29.7323 31.4099L37.031 21.2368C37.1086 21.1358 37.1678 21.0153 37.2045 20.8833C37.2413 20.7514 37.2547 20.6111 37.244 20.4721C37.2333 20.3332 37.1986 20.1987 37.1423 20.0778C37.086 19.957 37.0095 19.8526 36.9179 19.7718V19.7718Z" fill="#303030"/>
<path d="M44.9522 26.6399C41.2108 29.9485 37.0196 32.3903 32.5802 33.8478C28.174 35.2405 23.6654 36.073 19.1238 36.3325C19.2152 37.1649 19.3797 37.9823 19.6141 38.7703C22.1791 41.6534 41.4914 36.7309 45.2633 31.035C46.0649 29.8512 44.9522 26.6399 44.9522 26.6399ZM22.0187 38.6765C21.8919 38.6765 21.7679 38.6298 21.6625 38.5422C21.557 38.4546 21.4749 38.3301 21.4263 38.1845C21.3778 38.0389 21.3651 37.8786 21.3898 37.724C21.4146 37.5694 21.4756 37.4274 21.5653 37.316C21.655 37.2045 21.7693 37.1286 21.8936 37.0979C22.018 37.0671 22.147 37.0829 22.2641 37.1432C22.3813 37.2035 22.4814 37.3057 22.5519 37.4368C22.6224 37.5678 22.66 37.7219 22.66 37.8795C22.6612 37.9846 22.6455 38.089 22.6138 38.1864C22.582 38.2838 22.5348 38.3723 22.475 38.4466C22.4152 38.5209 22.344 38.5796 22.2656 38.6191C22.1873 38.6585 22.1033 38.6781 22.0187 38.6765V38.6765Z" fill="#303030"/>
<path d="M3.77257 24.9523L3.92344 24.1436L6.37521 24.8351C6.57748 25.2995 6.70255 25.8097 6.74297 26.3353C6.78977 26.8921 6.76108 27.4546 6.6581 27.9996C6.53603 28.7558 6.25639 29.459 5.84713 30.0389C5.45776 30.5863 4.95571 30.9915 4.39494 31.2109C3.81697 31.4324 3.20226 31.4607 2.61269 31.2929C2.02184 31.1343 1.47721 30.7776 1.03791 30.2616C0.605331 29.7658 0.294708 29.1278 0.142072 28.4215C-0.0272563 27.6543 -0.0272563 26.8446 0.142072 26.0775C0.243421 25.5033 0.42537 24.9558 0.679573 24.4601C0.920166 24.0092 1.24333 23.6357 1.62256 23.3701L1.96203 24.0147C1.63699 24.2628 1.35798 24.5937 1.14341 24.9856C0.928846 25.3776 0.78361 25.8216 0.717293 26.2884C0.60035 26.8948 0.610088 27.5282 0.745582 28.1285C0.872291 28.6985 1.12363 29.2137 1.47168 29.617C1.82943 30.0468 2.27702 30.3432 2.76357 30.4725C3.23537 30.6372 3.73454 30.6372 4.20634 30.4725C4.6583 30.2871 5.06424 29.9602 5.38507 29.5232C5.71478 29.0512 5.942 28.4824 6.04516 27.8707C6.20031 27.1285 6.16067 26.3442 5.932 25.6321L3.77257 24.9523Z" fill="#303030"/>
<path d="M9.10924 17.5803L6.91209 21.2253L7.85507 23.3232L7.4213 24.0499L3.93225 16.1388L4.33773 15.4473L11.4384 17.3459L10.9952 18.0726L9.10924 17.5803ZM8.48687 17.3928L4.71493 16.338L6.6009 20.5455L8.48687 17.3928Z" fill="#303030"/>
<path d="M8.48688 10.0208L9.05267 9.49341L12.6454 15.4707L15.6064 12.7165L15.9648 13.3142L12.4474 16.5841L8.48688 10.0208Z" fill="#303030"/>
<path d="M14.4277 5.13334L15.0595 4.78174L17.549 11.556L20.9154 9.65732L21.1606 10.3371L17.1623 12.5991L14.4277 5.13334Z" fill="#303030"/>
<path d="M26.8562 7.82899L26.9977 8.56736L22.4525 9.89174L20.9437 1.89859L25.3569 0.621094L25.4889 1.34774L21.717 2.43772L22.2545 5.274L25.5738 4.30122L25.7152 5.02787L22.3865 5.98893L22.9523 8.95413L26.8562 7.82899Z" fill="#303030"/>
<path d="M33.3345 8.12215L31.7597 5.54371C31.5839 5.5558 31.4076 5.5558 31.2317 5.54371L29.4589 5.61403L29.5249 8.21591H28.8271L28.6102 0.0117959L31.1185 7.57884e-05C31.8277 -0.0813302 32.5369 0.155664 33.1176 0.668125C33.3624 0.913069 33.5591 1.22391 33.6931 1.57718C33.827 1.93045 33.8947 2.31693 33.8909 2.70743C33.9184 3.28663 33.7962 3.86159 33.542 4.34825C33.271 4.81537 32.8881 5.16405 32.4481 5.34447L34.0983 8.08699L33.3345 8.12215ZM32.6744 4.26621C32.8439 4.07324 32.9754 3.83441 33.0588 3.56819C33.1422 3.30197 33.1752 3.01548 33.1554 2.73087C33.1602 2.44475 33.1127 2.161 33.0163 1.90109C32.9199 1.64119 32.7772 1.41194 32.599 1.23069C32.1644 0.864413 31.6417 0.694774 31.1185 0.750166L29.3268 0.832207L29.44 4.93426L31.194 4.86394C31.7288 4.88854 32.2533 4.67676 32.6744 4.26621V4.26621Z" fill="#303030"/>
<path d="M38.3229 5.94212L37.9835 8.74324L37.2951 8.61432L37.644 5.86008L35.692 0L36.4275 0.140642L38.0966 5.13343L40.9256 0.996214L41.5857 1.17202L38.3229 5.94212Z" fill="#303030"/>
<path d="M47.6491 5.44998L48.4695 6.77436L48.1111 7.12597L47.2907 5.76643L46.7721 7.30177L46.376 7.09081L46.9041 5.55547L45.5462 5.77815V5.21558L46.8852 5.02806L46.0554 3.70368L46.4232 3.35208L47.1493 4.68817L47.6585 3.14111L48.064 3.35208L47.5831 4.92258L48.941 4.68817V5.26246L47.6491 5.44998Z" fill="#303030"/>
<path d="M50.7986 14.8962C50.5759 14.4695 50.437 13.9838 50.3931 13.4781L50.9495 13.1734C50.9912 13.638 51.1135 14.0858 51.3078 14.486C51.5185 14.9348 51.7933 15.332 52.1188 15.658C52.4549 16.058 52.8838 16.3164 53.3447 16.3964C53.5112 16.4156 53.679 16.384 53.8334 16.3043C53.9879 16.2247 54.1244 16.0994 54.2311 15.9393C54.3093 15.8321 54.3689 15.706 54.4062 15.5689C54.4435 15.4318 54.4577 15.2866 54.448 15.1424C54.4168 14.8567 54.3398 14.5817 54.2217 14.3337C54.0444 13.9739 53.8524 13.6258 53.6464 13.2906C53.3954 12.8818 53.1685 12.4509 52.9675 12.0013C52.8139 11.6649 52.7296 11.2864 52.7223 10.8997C52.7216 10.4653 52.853 10.0467 53.0901 9.72764C53.2956 9.41838 53.5667 9.18693 53.8727 9.05959C54.2147 8.93684 54.5775 8.93684 54.9195 9.05959C55.36 9.23865 55.7672 9.52558 56.1171 9.90344C56.4074 10.2036 56.6642 10.5504 56.8809 10.9348C57.0812 11.2913 57.2311 11.6877 57.3241 12.1068L56.7866 12.4584C56.6928 12.0677 56.553 11.6965 56.3717 11.3567C56.191 11.0534 55.9785 10.7814 55.7399 10.548C55.4087 10.1499 54.9811 9.89856 54.5234 9.83312C54.3552 9.81564 54.1861 9.8504 54.0314 9.93428C53.8767 10.0182 53.7411 10.1485 53.637 10.3136C53.5568 10.4192 53.4959 10.5451 53.4585 10.6827C53.421 10.8202 53.4079 10.9662 53.4201 11.1106C53.4422 11.4062 53.5197 11.6912 53.6464 11.9427C53.7784 12.2123 53.967 12.5639 54.2217 12.9858C54.4741 13.3852 54.7011 13.8084 54.9006 14.2516C55.0575 14.587 55.145 14.9656 55.1552 15.3533C55.1559 15.7876 55.0245 16.2062 54.7874 16.5253C54.5812 16.8389 54.3059 17.071 53.9953 17.1934C53.654 17.3215 53.2899 17.3215 52.9486 17.1934C52.5051 17.0149 52.0947 16.728 51.7416 16.3495C51.361 15.9378 51.0417 15.4458 50.7986 14.8962V14.8962Z" fill="#303030"/>
<path d="M60.2851 16.6075L58.9555 14.2635L59.4458 13.8298L62.5105 19.268L62.0202 19.7016L60.6906 17.3576L55.7682 21.6355L55.3721 20.9205L60.2851 16.6075Z" fill="#303030"/>
<path d="M58.1728 26.2414C58.3411 25.5331 58.6682 24.899 59.1157 24.4131C59.5536 23.9257 60.087 23.5902 60.6622 23.4403C61.2487 23.273 61.8603 23.3013 62.4351 23.5224C62.9898 23.7503 63.4872 24.1543 63.8778 24.6944C64.284 25.2752 64.5604 25.9784 64.6794 26.7337C64.8356 27.4752 64.8356 28.2542 64.6794 28.9957C64.5064 29.7014 64.1801 30.334 63.7364 30.824C63.2864 31.3245 62.7399 31.6718 62.15 31.832C61.5601 31.9922 60.9468 31.9599 60.3699 31.7382C59.8109 31.5213 59.3114 31.1155 58.9272 30.5662C58.5228 29.9884 58.2465 29.2895 58.1256 28.5386C57.9816 27.7806 57.9978 26.9893 58.1728 26.2414V26.2414ZM59.4081 29.9684C59.7229 30.4141 60.1309 30.7427 60.5868 30.9178C61.0567 31.0872 61.5533 31.1073 62.0311 30.9762C62.5089 30.8452 62.9526 30.5672 63.3215 30.1677C63.6695 29.7697 63.9265 29.2642 64.0664 28.7027C64.1979 28.1097 64.2108 27.4858 64.104 26.8853C63.9971 26.2847 63.7738 25.7257 63.4535 25.2569C63.1248 24.8092 62.7043 24.481 62.237 24.3076C61.7612 24.1506 61.2606 24.1506 60.7848 24.3076C60.3047 24.4221 59.8603 24.7024 59.5024 25.1163C59.1511 25.5157 58.8937 26.0261 58.7574 26.593C58.6294 27.1881 58.6294 27.8146 58.7574 28.4097C58.8607 28.9911 59.0851 29.5287 59.4081 29.9684V29.9684Z" fill="#303030"/>
<path d="M57.4561 39.8486L59.8985 38.6765C59.8985 38.4656 59.9551 38.2546 60.0022 38.0319L60.4643 35.9106L58.4651 35.266L58.6443 34.4338L65.0189 36.5552L64.3777 39.5204C64.2332 40.3856 63.8454 41.1585 63.2838 41.7003C63.0257 41.9231 62.7297 42.0686 62.4189 42.1255C62.1081 42.1824 61.7909 42.1492 61.4921 42.0285C61.0371 41.9058 60.6293 41.5939 60.3361 41.1443C60.0429 40.6947 59.8819 40.1343 59.8796 39.5555L57.277 40.7276L57.4561 39.8486ZM60.6151 40.1767C60.7256 40.4258 60.8755 40.6445 61.0557 40.8198C61.2359 40.9951 61.4428 41.1232 61.6639 41.1966C61.885 41.2699 62.1157 41.2869 62.3422 41.2466C62.5688 41.2063 62.7864 41.1095 62.982 40.962C63.3983 40.5465 63.6823 39.9609 63.7836 39.3094L64.2362 37.1998L61.0395 36.1333L60.5869 38.2429C60.4129 38.8716 60.4229 39.5563 60.6151 40.1767V40.1767Z" fill="#303030"/>
<path d="M54.0708 47.3964L53.5898 46.9393L56.4188 42.3098L61.6807 47.2674L58.946 51.7563L58.4651 51.2992L60.7754 47.5136L58.8894 45.7438L56.8243 49.1309L56.3528 48.6856L58.4651 45.2985L56.5131 43.4584L54.0708 47.3964Z" fill="#303030"/>
<path d="M51.8642 56.7373L50.5157 56.8311V56.2685L51.8642 56.2568L51.1381 54.8621L51.5059 54.5691L52.2226 55.9755L52.8072 54.405L53.2127 54.6746L52.5715 56.1513L53.9199 56.0576V56.6319H52.5526L53.2787 58.0266L52.9109 58.3196L52.1943 56.9131L51.5719 58.4368L51.1758 58.1555L51.8642 56.7373Z" fill="#303030"/>
<path d="M39.6054 55.7996L40.7464 56.5849C40.9377 56.1282 41.2047 55.727 41.5298 55.4078C41.8548 55.0887 42.2306 54.8587 42.6324 54.7331C43.0072 54.5879 43.4013 54.5361 43.7923 54.5807C44.1315 54.6131 44.4573 54.7589 44.7352 55.0027C44.9865 55.2381 45.1714 55.5663 45.2633 55.9403C45.377 56.4029 45.357 56.9004 45.2067 57.3467C44.9701 57.9531 44.6511 58.5042 44.2638 58.9758C44.5746 59.1834 44.863 59.4394 45.1219 59.7376C45.2997 59.966 45.4321 60.243 45.5085 60.5463C45.5568 60.7828 45.5598 61.03 45.5172 61.2682C45.4746 61.5064 45.3877 61.7288 45.2633 61.9176C45.0116 62.3684 44.636 62.6893 44.2072 62.82C43.8306 62.9985 43.4144 62.9985 43.0379 62.82C42.8704 62.7305 42.722 62.594 42.6042 62.4211C42.4864 62.2482 42.4024 62.0438 42.3589 61.8238C42.2601 61.4369 42.2837 61.0178 42.4249 60.6518C42.6414 60.119 42.9247 59.6323 43.2642 59.2102L40.9916 57.6397C40.9049 58.1916 40.8858 58.7567 40.935 59.3157H40.3598C40.3211 58.6273 40.385 57.9359 40.5484 57.2764L39.3602 56.456L39.6054 55.7996ZM41.2462 56.9717L43.7451 58.6945C44.0726 58.3058 44.3437 57.8499 44.5467 57.3467C44.6503 57.0069 44.6503 56.6317 44.5467 56.2919C44.5039 56.0888 44.4212 55.9022 44.3059 55.7487C44.1907 55.5953 44.0466 55.4799 43.8866 55.4129C43.4951 55.2485 43.071 55.2485 42.6795 55.4129C42.3596 55.5178 42.0621 55.7085 41.808 55.9718C41.5538 56.235 41.3492 56.5643 41.2085 56.9365L41.2462 56.9717ZM44.7918 61.6597C44.8534 61.5302 44.8921 61.3858 44.9051 61.2362C44.9181 61.0866 44.9052 60.9353 44.8673 60.7924C44.8095 60.561 44.7057 60.3514 44.5655 60.183C44.3255 59.9313 44.0628 59.715 43.7828 59.5384C43.4969 59.8898 43.2467 60.2834 43.0379 60.7104C42.9239 60.9766 42.8969 61.2873 42.9624 61.5777C42.9923 61.7118 43.0448 61.8365 43.1163 61.9435C43.1878 62.0506 43.2768 62.1376 43.3773 62.1988C43.6174 62.3113 43.8822 62.3113 44.1223 62.1988C44.3787 62.1138 44.6025 61.9187 44.7541 61.648L44.7918 61.6597Z" fill="#303030"/>
<path d="M28.1104 64.8359L28.2424 56.6318H28.912L28.8082 63.1951L31.4863 57.7335H31.8163L34.3247 63.2889L34.419 56.7608H35.0885L34.9659 64.9649H34.3907L31.6183 58.8352L28.6856 64.8477L28.1104 64.8359Z" fill="#303030"/>
<path d="M24.8288 56.2568C25.26 56.7676 25.5686 57.4172 25.7201 58.1333C25.8717 58.8493 25.8602 59.6036 25.6869 60.312C25.532 61.0373 25.2225 61.6973 24.7911 62.2223C24.3718 62.7345 23.8462 63.0916 23.2729 63.2537C22.6682 63.4233 22.0387 63.3991 21.4435 63.1834C20.8504 63.0034 20.3047 62.636 19.8593 62.1169C19.4345 61.6126 19.1309 60.9714 18.9823 60.2651C18.8373 59.5349 18.848 58.7703 19.0134 58.0468C19.1787 57.3233 19.4931 56.666 19.9253 56.1396C20.3371 55.6287 20.8516 55.2644 21.4152 55.0848C22.0168 54.9157 22.6432 54.9399 23.2352 55.1551C23.8344 55.3439 24.3837 55.7236 24.8288 56.2568ZM21.6132 55.8466C21.152 55.9801 20.7304 56.2725 20.3968 56.6904C20.0494 57.1204 19.8019 57.659 19.6801 58.2492C19.5486 58.8358 19.5486 59.4558 19.6801 60.0424C19.7913 60.613 20.03 61.1331 20.3685 61.5426C20.7235 61.9741 21.1619 62.2849 21.6415 62.445C22.1211 62.5968 22.6236 62.5968 23.1032 62.445C23.5648 62.304 23.9879 62.0127 24.329 61.6012C24.6746 61.1694 24.9218 60.6316 25.0457 60.0424C25.1775 59.4519 25.1775 58.828 25.0457 58.2375C24.925 57.669 24.6841 57.151 24.3479 56.7373C23.991 56.3052 23.5486 55.9979 23.0654 55.8466C22.5903 55.6833 22.0884 55.6833 21.6132 55.8466Z" fill="#303030"/>
<path d="M14.4748 50.3968L14.7294 53.6198C14.8912 53.7057 15.0486 53.8035 15.2009 53.9128L16.738 55.0145L17.7753 52.7408L18.3882 53.1745L15.0877 60.2417L12.9377 58.7064C12.3023 58.3096 11.8009 57.6449 11.5233 56.8312C11.4208 56.4645 11.3862 56.0738 11.4221 55.6883C11.458 55.3027 11.5635 54.9322 11.7307 54.6043C11.9499 54.0907 12.2974 53.6794 12.7209 53.4323C13.1509 53.2109 13.6266 53.1657 14.0788 53.3034L13.8053 49.8577L14.4748 50.3968ZM13.3998 54.1004C13.1783 54.1694 12.9703 54.2933 12.7883 54.4646C12.6062 54.6359 12.4539 54.8511 12.3403 55.0973C12.2267 55.3435 12.1543 55.6157 12.1273 55.8975C12.1003 56.1793 12.1194 56.465 12.1834 56.7374C12.4044 57.344 12.7876 57.8368 13.2678 58.1321L14.786 59.2221L16.4362 55.706L14.918 54.616C14.4816 54.2096 13.9444 54.0064 13.3998 54.0418V54.1004Z" fill="#303030"/>
<path d="M8.89233 44.9L9.31667 44.3726L12.57 48.5332L7.85505 54.2527L4.7149 50.2209L5.14868 49.6935L7.81733 53.1041L9.42983 51.0765L7.09123 48.0527L7.54386 47.5136L9.92961 50.5608L11.6836 48.4395L8.89233 44.9Z" fill="#303030"/>
<path d="M1.88597 40.2939L2.11229 38.6765L2.55549 38.7586L2.30089 40.4228L3.55506 39.8485L3.70594 40.3642L2.43291 40.9033L3.47962 42.005L3.17786 42.427L2.16887 41.2549L1.93312 42.9192L1.48049 42.8137L1.74453 41.1495L0.480925 41.712L0.339478 41.2549L1.60308 40.7041L0.556364 39.6141L0.86755 39.1922L1.88597 40.2939Z" fill="#303030"/>
</g>
<defs>
<clipPath id="clip0_1_6">
<rect width="65" height="65" fill="white"/>
</clipPath>
</defs>
</svg>
