<svg aria-hidden="true" style="position: absolute; width: 0; height: 0; overflow: hidden;" version="1.1" xmlns="http://www.w3.org/2000/svg" xmlns:xlink="http://www.w3.org/1999/xlink">
<defs>
<symbol id="icon-Logo" viewBox="0 0 32 32">
<path d="M18.175 9.734l-0.608-0.577c-0.095-0.096-0.217-0.141-0.338-0.126s-0.234 0.089-0.312 0.207l-8.417 12.013 0.13 0.179 2.084-2.389c-0.069-0.035-0.127-0.099-0.162-0.181s-0.047-0.177-0.032-0.268c0.015-0.091 0.055-0.173 0.113-0.231s0.131-0.089 0.206-0.088c0.068 0 0.133 0.027 0.188 0.077s0.094 0.12 0.114 0.2l2.748-3.168c0.042-0.042 0.095-0.065 0.149-0.065s0.106 0.023 0.149 0.065l0.139 0.127c0.047 0.042 0.105 0.060 0.163 0.052s0.11-0.044 0.148-0.098l3.593-5.008c0.038-0.050 0.067-0.109 0.085-0.174s0.025-0.134 0.019-0.202c-0.005-0.068-0.022-0.135-0.050-0.194s-0.065-0.111-0.11-0.151v0z"></path>
<path d="M22.13 13.115c-1.842 1.629-3.905 2.831-6.091 3.548-2.169 0.686-4.389 1.095-6.625 1.223 0.045 0.41 0.126 0.812 0.241 1.2 1.263 1.419 10.77-1.004 12.627-3.808 0.395-0.583-0.153-2.164-0.153-2.164zM10.84 19.041c-0.062 0-0.123-0.023-0.175-0.066s-0.092-0.104-0.116-0.176c-0.024-0.072-0.030-0.151-0.018-0.227s0.042-0.146 0.086-0.201c0.044-0.055 0.1-0.092 0.162-0.107s0.125-0.007 0.182 0.022c0.058 0.030 0.107 0.080 0.142 0.145s0.053 0.14 0.053 0.218c0.001 0.052-0.007 0.103-0.023 0.151s-0.039 0.092-0.068 0.128-0.065 0.065-0.103 0.085c-0.039 0.019-0.080 0.029-0.122 0.028v0z"></path>
<path d="M1.857 12.284l0.074-0.398 1.207 0.34c0.1 0.229 0.161 0.48 0.181 0.739 0.023 0.274 0.009 0.551-0.042 0.819-0.060 0.372-0.198 0.718-0.399 1.004-0.192 0.27-0.439 0.469-0.715 0.577-0.285 0.109-0.587 0.123-0.877 0.040-0.291-0.078-0.559-0.254-0.775-0.508-0.213-0.244-0.366-0.558-0.441-0.906-0.083-0.378-0.083-0.776 0-1.154 0.050-0.283 0.139-0.552 0.265-0.796 0.118-0.222 0.278-0.406 0.464-0.537l0.167 0.317c-0.16 0.122-0.297 0.285-0.403 0.478s-0.177 0.412-0.21 0.641c-0.058 0.299-0.053 0.61 0.014 0.906 0.062 0.281 0.186 0.534 0.357 0.733 0.176 0.212 0.396 0.357 0.636 0.421 0.232 0.081 0.478 0.081 0.71 0 0.223-0.091 0.422-0.252 0.58-0.467 0.162-0.232 0.274-0.512 0.325-0.814 0.076-0.365 0.057-0.752-0.056-1.102l-1.063-0.335z"></path>
<path d="M4.485 8.655l-1.082 1.794 0.464 1.033-0.214 0.358-1.718-3.895 0.2-0.34 3.496 0.935-0.218 0.358-0.928-0.242zM4.178 8.563l-1.857-0.519 0.928 2.071 0.928-1.552z"></path>
<path d="M4.178 4.933l0.279-0.26 1.769 2.943 1.458-1.356 0.176 0.294-1.732 1.61-1.95-3.231z"></path>
<path d="M7.103 2.527l0.311-0.173 1.226 3.335 1.657-0.935 0.121 0.335-1.968 1.114-1.346-3.675z"></path>
<path d="M13.222 3.854l0.070 0.363-2.238 0.652-0.743-3.935 2.173-0.629 0.065 0.358-1.857 0.537 0.265 1.396 1.634-0.479 0.070 0.358-1.639 0.473 0.279 1.46 1.922-0.554z"></path>
<path d="M16.411 3.999l-0.775-1.269c-0.087 0.006-0.173 0.006-0.26 0l-0.873 0.035 0.033 1.281h-0.344l-0.107-4.039 1.235-0.006c0.349-0.040 0.698 0.077 0.984 0.329 0.121 0.121 0.217 0.274 0.283 0.448s0.099 0.364 0.097 0.556c0.014 0.285-0.047 0.568-0.172 0.808-0.133 0.23-0.322 0.402-0.539 0.49l0.812 1.35-0.376 0.017zM16.086 2.1c0.083-0.095 0.148-0.213 0.189-0.344s0.057-0.272 0.048-0.412c0.002-0.141-0.021-0.281-0.068-0.408s-0.118-0.241-0.205-0.33c-0.214-0.18-0.471-0.264-0.729-0.237l-0.882 0.040 0.056 2.019 0.864-0.035c0.263 0.012 0.521-0.092 0.729-0.294v0z"></path>
<path d="M18.867 2.925l-0.167 1.379-0.339-0.063 0.172-1.356-0.961-2.885 0.362 0.069 0.822 2.458 1.393-2.037 0.325 0.087-1.606 2.348z"></path>
<path d="M23.458 2.683l0.404 0.652-0.176 0.173-0.404-0.669-0.255 0.756-0.195-0.104 0.26-0.756-0.669 0.11v-0.277l0.659-0.092-0.409-0.652 0.181-0.173 0.357 0.658 0.251-0.762 0.2 0.104-0.237 0.773 0.669-0.115v0.283l-0.636 0.092z"></path>
<path d="M25.009 7.333c-0.11-0.21-0.178-0.449-0.2-0.698l0.274-0.15c0.021 0.229 0.081 0.449 0.176 0.646 0.104 0.221 0.239 0.417 0.399 0.577 0.165 0.197 0.377 0.324 0.604 0.364 0.082 0.009 0.165-0.006 0.241-0.045s0.143-0.101 0.196-0.18c0.038-0.053 0.068-0.115 0.086-0.182s0.025-0.139 0.021-0.21c-0.015-0.141-0.053-0.276-0.111-0.398-0.087-0.177-0.182-0.348-0.283-0.514-0.124-0.201-0.235-0.413-0.334-0.635-0.076-0.166-0.117-0.352-0.121-0.542-0-0.214 0.064-0.42 0.181-0.577 0.101-0.152 0.235-0.266 0.385-0.329 0.168-0.060 0.347-0.060 0.515 0 0.217 0.088 0.417 0.229 0.59 0.415 0.143 0.148 0.269 0.319 0.376 0.508 0.099 0.176 0.172 0.371 0.218 0.577l-0.265 0.173c-0.046-0.192-0.115-0.375-0.204-0.542-0.089-0.149-0.194-0.283-0.311-0.398-0.163-0.196-0.374-0.32-0.599-0.352-0.083-0.009-0.166 0.008-0.242 0.050s-0.143 0.105-0.194 0.187c-0.039 0.052-0.069 0.114-0.088 0.182s-0.025 0.14-0.019 0.211c0.011 0.146 0.049 0.286 0.111 0.41 0.065 0.133 0.158 0.306 0.283 0.514 0.124 0.197 0.236 0.405 0.334 0.623 0.077 0.165 0.12 0.351 0.125 0.542 0 0.214-0.064 0.42-0.181 0.577-0.102 0.154-0.237 0.269-0.39 0.329-0.168 0.063-0.347 0.063-0.515 0-0.218-0.088-0.42-0.229-0.594-0.415-0.187-0.203-0.345-0.445-0.464-0.715v0z"></path>
<path d="M29.679 8.176l-0.655-1.154 0.241-0.213 1.509 2.677-0.241 0.213-0.655-1.154-2.423 2.106-0.195-0.352 2.419-2.123z"></path>
<path d="M28.639 12.919c0.083-0.349 0.244-0.661 0.464-0.9 0.216-0.24 0.478-0.405 0.761-0.479 0.289-0.082 0.59-0.068 0.873 0.040 0.273 0.112 0.518 0.311 0.71 0.577 0.2 0.286 0.336 0.632 0.395 1.004 0.077 0.365 0.077 0.749 0 1.114-0.085 0.347-0.246 0.659-0.464 0.9-0.222 0.246-0.491 0.417-0.781 0.496s-0.592 0.063-0.876-0.046c-0.275-0.107-0.521-0.307-0.71-0.577-0.199-0.284-0.335-0.629-0.395-0.998-0.071-0.373-0.063-0.763 0.023-1.131v0zM29.247 14.754c0.155 0.219 0.356 0.381 0.58 0.467 0.231 0.083 0.476 0.093 0.711 0.029s0.454-0.201 0.635-0.398c0.171-0.196 0.298-0.445 0.367-0.721 0.065-0.292 0.071-0.599 0.018-0.895s-0.163-0.571-0.32-0.802c-0.162-0.22-0.369-0.382-0.599-0.467-0.234-0.077-0.481-0.077-0.715 0-0.236 0.056-0.455 0.194-0.631 0.398-0.173 0.197-0.3 0.448-0.367 0.727-0.063 0.293-0.063 0.601 0 0.894 0.051 0.286 0.161 0.551 0.32 0.767v0z"></path>
<path d="M28.286 19.618l1.202-0.577c0-0.104 0.028-0.208 0.051-0.317l0.227-1.044-0.984-0.317 0.088-0.41 3.138 1.044-0.316 1.46c-0.071 0.426-0.262 0.806-0.539 1.073-0.127 0.11-0.273 0.181-0.426 0.209s-0.309 0.012-0.456-0.048c-0.224-0.060-0.425-0.214-0.569-0.435s-0.224-0.497-0.225-0.782l-1.281 0.577 0.088-0.433zM29.841 19.779c0.054 0.123 0.128 0.23 0.217 0.317s0.191 0.149 0.299 0.186c0.109 0.036 0.222 0.044 0.334 0.025s0.219-0.067 0.315-0.14c0.205-0.205 0.345-0.493 0.395-0.814l0.223-1.039-1.574-0.525-0.223 1.039c-0.086 0.309-0.081 0.647 0.014 0.952v0z"></path>
<path d="M26.619 23.334l-0.237-0.225 1.393-2.279 2.59 2.441-1.346 2.21-0.237-0.225 1.137-1.864-0.928-0.871-1.017 1.668-0.232-0.219 1.040-1.668-0.961-0.906-1.202 1.939z"></path>
<path d="M25.533 27.932l-0.664 0.046v-0.277l0.664-0.006-0.357-0.687 0.181-0.144 0.353 0.692 0.288-0.773 0.2 0.133-0.316 0.727 0.664-0.046v0.283h-0.673l0.357 0.687-0.181 0.144-0.353-0.692-0.306 0.75-0.195-0.139 0.339-0.698z"></path>
<path d="M19.498 27.471l0.562 0.387c0.094-0.225 0.226-0.422 0.386-0.579s0.345-0.27 0.543-0.332c0.185-0.071 0.379-0.097 0.571-0.075 0.167 0.016 0.327 0.088 0.464 0.208 0.124 0.116 0.215 0.277 0.26 0.462 0.056 0.228 0.046 0.473-0.028 0.692-0.116 0.299-0.274 0.57-0.464 0.802 0.153 0.102 0.295 0.228 0.422 0.375 0.088 0.112 0.153 0.249 0.19 0.398 0.024 0.116 0.025 0.238 0.004 0.355s-0.064 0.227-0.125 0.32c-0.124 0.222-0.309 0.38-0.52 0.444-0.185 0.088-0.39 0.088-0.576 0-0.082-0.044-0.156-0.111-0.213-0.196s-0.099-0.186-0.121-0.294c-0.049-0.19-0.037-0.397 0.032-0.577 0.107-0.262 0.246-0.502 0.413-0.71l-1.119-0.773c-0.043 0.272-0.052 0.55-0.028 0.825h-0.283c-0.019-0.339 0.012-0.679 0.093-1.004l-0.585-0.404 0.121-0.323zM20.306 28.048l1.23 0.848c0.161-0.191 0.295-0.416 0.395-0.664 0.051-0.167 0.051-0.352 0-0.519-0.021-0.1-0.062-0.192-0.119-0.267s-0.128-0.132-0.206-0.165c-0.193-0.081-0.402-0.081-0.594 0-0.157 0.052-0.304 0.146-0.429 0.275s-0.226 0.292-0.295 0.475l0.019 0.017zM22.051 30.356c0.030-0.064 0.049-0.135 0.056-0.209s0-0.148-0.019-0.218c-0.028-0.114-0.080-0.217-0.149-0.3-0.118-0.124-0.247-0.23-0.385-0.317-0.141 0.173-0.264 0.367-0.367 0.577-0.056 0.131-0.069 0.284-0.037 0.427 0.015 0.066 0.041 0.127 0.076 0.18s0.079 0.096 0.128 0.126c0.118 0.055 0.249 0.055 0.367 0 0.126-0.042 0.236-0.138 0.311-0.271l0.019 0.006z"></path>
<path d="M13.839 31.919l0.065-4.039h0.33l-0.051 3.231 1.318-2.689h0.162l1.235 2.735 0.046-3.214h0.33l-0.060 4.039h-0.283l-1.365-3.018-1.444 2.96-0.283-0.006z"></path>
<path d="M12.223 27.696c0.212 0.251 0.364 0.571 0.439 0.924s0.069 0.724-0.016 1.073c-0.076 0.357-0.229 0.682-0.441 0.94-0.206 0.252-0.465 0.428-0.747 0.508-0.298 0.084-0.608 0.072-0.901-0.035-0.292-0.089-0.561-0.27-0.78-0.525-0.209-0.248-0.359-0.564-0.432-0.912-0.071-0.359-0.066-0.736 0.015-1.092s0.236-0.68 0.449-0.939c0.203-0.252 0.456-0.431 0.733-0.519 0.296-0.083 0.605-0.071 0.896 0.035 0.295 0.093 0.565 0.28 0.785 0.542zM10.64 27.494c-0.227 0.066-0.435 0.21-0.599 0.415-0.171 0.212-0.293 0.477-0.353 0.767-0.065 0.289-0.065 0.594 0 0.883 0.055 0.281 0.172 0.537 0.339 0.739 0.175 0.212 0.391 0.365 0.627 0.444 0.236 0.075 0.483 0.075 0.72 0 0.227-0.069 0.436-0.213 0.603-0.415 0.17-0.213 0.292-0.477 0.353-0.767 0.065-0.291 0.065-0.598 0-0.889-0.059-0.28-0.178-0.535-0.344-0.739-0.176-0.213-0.393-0.364-0.631-0.439-0.234-0.080-0.481-0.080-0.715 0z"></path>
<path d="M7.126 24.811l0.125 1.587c0.080 0.042 0.157 0.090 0.232 0.144l0.757 0.542 0.511-1.119 0.302 0.213-1.625 3.479-1.058-0.756c-0.313-0.195-0.56-0.523-0.696-0.923-0.050-0.181-0.067-0.373-0.050-0.563s0.070-0.372 0.152-0.534c0.108-0.253 0.279-0.455 0.487-0.577 0.212-0.109 0.446-0.131 0.668-0.063l-0.135-1.696 0.33 0.265zM6.597 26.634c-0.109 0.034-0.211 0.095-0.301 0.179s-0.165 0.19-0.221 0.311-0.092 0.255-0.105 0.394c-0.013 0.139-0.004 0.279 0.028 0.413 0.109 0.299 0.297 0.541 0.534 0.687l0.747 0.537 0.812-1.731-0.747-0.537c-0.215-0.2-0.479-0.3-0.747-0.283v0.029z"></path>
<path d="M4.378 22.105l0.209-0.26 1.602 2.048-2.321 2.816-1.546-1.985 0.214-0.26 1.314 1.679 0.794-0.998-1.151-1.489 0.223-0.265 1.175 1.5 0.864-1.044-1.374-1.743z"></path>
<path d="M0.928 19.837l0.111-0.796 0.218 0.040-0.125 0.819 0.617-0.283 0.074 0.254-0.627 0.265 0.515 0.542-0.149 0.208-0.497-0.577-0.116 0.819-0.223-0.052 0.13-0.819-0.622 0.277-0.070-0.225 0.622-0.271-0.515-0.537 0.153-0.208 0.501 0.542z"></path>
</symbol>
<symbol id="icon-mob-menu-btn" viewBox="0 0 32 32">
<path d="M6.4 11.733v-2.133h19.2v2.133h-19.2zM6.4 17.067h19.2v-2.133h-19.2v2.133zM6.4 22.4h19.2v-2.133h-19.2v2.133z"></path>
</symbol>
</defs>
</svg>
