<svg aria-hidden="true" style="position: absolute; width: 0; height: 0; overflow: hidden;" version="1.1" xmlns="http://www.w3.org/2000/svg" xmlns:xlink="http://www.w3.org/1999/xlink">
<defs>
<symbol id="icon-Logo" viewBox="0 0 32 32">
<path d="M18.175 9.734l-0.608-0.577c-0.095-0.096-0.217-0.141-0.338-0.126s-0.234 0.089-0.312 0.207l-8.417 12.013 0.13 0.179 2.084-2.389c-0.069-0.035-0.127-0.099-0.162-0.181s-0.047-0.177-0.032-0.268c0.015-0.091 0.055-0.173 0.113-0.231s0.131-0.089 0.206-0.088c0.068 0 0.133 0.027 0.188 0.077s0.094 0.12 0.114 0.2l2.748-3.168c0.042-0.042 0.095-0.065 0.149-0.065s0.106 0.023 0.149 0.065l0.139 0.127c0.047 0.042 0.105 0.060 0.163 0.052s0.11-0.044 0.148-0.098l3.593-5.008c0.038-0.050 0.067-0.109 0.085-0.174s0.025-0.134 0.019-0.202c-0.005-0.068-0.022-0.135-0.050-0.194s-0.065-0.111-0.11-0.151v0z"></path>
<path d="M22.13 13.115c-1.842 1.629-3.905 2.831-6.091 3.548-2.169 0.686-4.389 1.095-6.625 1.223 0.045 0.41 0.126 0.812 0.241 1.2 1.263 1.419 10.77-1.004 12.627-3.808 0.395-0.583-0.153-2.164-0.153-2.164zM10.84 19.041c-0.062 0-0.123-0.023-0.175-0.066s-0.092-0.104-0.116-0.176c-0.024-0.072-0.030-0.151-0.018-0.227s0.042-0.146 0.086-0.201c0.044-0.055 0.1-0.092 0.162-0.107s0.125-0.007 0.182 0.022c0.058 0.030 0.107 0.080 0.142 0.145s0.053 0.14 0.053 0.218c0.001 0.052-0.007 0.103-0.023 0.151s-0.039 0.092-0.068 0.128-0.065 0.065-0.103 0.085c-0.039 0.019-0.080 0.029-0.122 0.028v0z"></path>
<path d="M1.857 12.284l0.074-0.398 1.207 0.34c0.1 0.229 0.161 0.48 0.181 0.739 0.023 0.274 0.009 0.551-0.042 0.819-0.060 0.372-0.198 0.718-0.399 1.004-0.192 0.27-0.439 0.469-0.715 0.577-0.285 0.109-0.587 0.123-0.877 0.040-0.291-0.078-0.559-0.254-0.775-0.508-0.213-0.244-0.366-0.558-0.441-0.906-0.083-0.378-0.083-0.776 0-1.154 0.050-0.283 0.139-0.552 0.265-0.796 0.118-0.222 0.278-0.406 0.464-0.537l0.167 0.317c-0.16 0.122-0.297 0.285-0.403 0.478s-0.177 0.412-0.21 0.641c-0.058 0.299-0.053 0.61 0.014 0.906 0.062 0.281 0.186 0.534 0.357 0.733 0.176 0.212 0.396 0.357 0.636 0.421 0.232 0.081 0.478 0.081 0.71 0 0.223-0.091 0.422-0.252 0.58-0.467 0.162-0.232 0.274-0.512 0.325-0.814 0.076-0.365 0.057-0.752-0.056-1.102l-1.063-0.335z"></path>
<path d="M4.485 8.655l-1.082 1.794 0.464 1.033-0.214 0.358-1.718-3.895 0.2-0.34 3.496 0.935-0.218 0.358-0.928-0.242zM4.178 8.563l-1.857-0.519 0.928 2.071 0.928-1.552z"></path>
<path d="M4.178 4.933l0.279-0.26 1.769 2.943 1.458-1.356 0.176 0.294-1.732 1.61-1.95-3.231z"></path>
<path d="M7.103 2.527l0.311-0.173 1.226 3.335 1.657-0.935 0.121 0.335-1.968 1.114-1.346-3.675z"></path>
<path d="M13.222 3.854l0.070 0.363-2.238 0.652-0.743-3.935 2.173-0.629 0.065 0.358-1.857 0.537 0.265 1.396 1.634-0.479 0.070 0.358-1.639 0.473 0.279 1.46 1.922-0.554z"></path>
<path d="M16.411 3.999l-0.775-1.269c-0.087 0.006-0.173 0.006-0.26 0l-0.873 0.035 0.033 1.281h-0.344l-0.107-4.039 1.235-0.006c0.349-0.040 0.698 0.077 0.984 0.329 0.121 0.121 0.217 0.274 0.283 0.448s0.099 0.364 0.097 0.556c0.014 0.285-0.047 0.568-0.172 0.808-0.133 0.23-0.322 0.402-0.539 0.49l0.812 1.35-0.376 0.017zM16.086 2.1c0.083-0.095 0.148-0.213 0.189-0.344s0.057-0.272 0.048-0.412c0.002-0.141-0.021-0.281-0.068-0.408s-0.118-0.241-0.205-0.33c-0.214-0.18-0.471-0.264-0.729-0.237l-0.882 0.040 0.056 2.019 0.864-0.035c0.263 0.012 0.521-0.092 0.729-0.294v0z"></path>
<path d="M18.867 2.925l-0.167 1.379-0.339-0.063 0.172-1.356-0.961-2.885 0.362 0.069 0.822 2.458 1.393-2.037 0.325 0.087-1.606 2.348z"></path>
<path d="M23.458 2.683l0.404 0.652-0.176 0.173-0.404-0.669-0.255 0.756-0.195-0.104 0.26-0.756-0.669 0.11v-0.277l0.659-0.092-0.409-0.652 0.181-0.173 0.357 0.658 0.251-0.762 0.2 0.104-0.237 0.773 0.669-0.115v0.283l-0.636 0.092z"></path>
<path d="M25.009 7.333c-0.11-0.21-0.178-0.449-0.2-0.698l0.274-0.15c0.021 0.229 0.081 0.449 0.176 0.646 0.104 0.221 0.239 0.417 0.399 0.577 0.165 0.197 0.377 0.324 0.604 0.364 0.082 0.009 0.165-0.006 0.241-0.045s0.143-0.101 0.196-0.18c0.038-0.053 0.068-0.115 0.086-0.182s0.025-0.139 0.021-0.21c-0.015-0.141-0.053-0.276-0.111-0.398-0.087-0.177-0.182-0.348-0.283-0.514-0.124-0.201-0.235-0.413-0.334-0.635-0.076-0.166-0.117-0.352-0.121-0.542-0-0.214 0.064-0.42 0.181-0.577 0.101-0.152 0.235-0.266 0.385-0.329 0.168-0.060 0.347-0.060 0.515 0 0.217 0.088 0.417 0.229 0.59 0.415 0.143 0.148 0.269 0.319 0.376 0.508 0.099 0.176 0.172 0.371 0.218 0.577l-0.265 0.173c-0.046-0.192-0.115-0.375-0.204-0.542-0.089-0.149-0.194-0.283-0.311-0.398-0.163-0.196-0.374-0.32-0.599-0.352-0.083-0.009-0.166 0.008-0.242 0.050s-0.143 0.105-0.194 0.187c-0.039 0.052-0.069 0.114-0.088 0.182s-0.025 0.14-0.019 0.211c0.011 0.146 0.049 0.286 0.111 0.41 0.065 0.133 0.158 0.306 0.283 0.514 0.124 0.197 0.236 0.405 0.334 0.623 0.077 0.165 0.12 0.351 0.125 0.542 0 0.214-0.064 0.42-0.181 0.577-0.102 0.154-0.237 0.269-0.39 0.329-0.168 0.063-0.347 0.063-0.515 0-0.218-0.088-0.42-0.229-0.594-0.415-0.187-0.203-0.345-0.445-0.464-0.715v0z"></path>
<path d="M29.679 8.176l-0.655-1.154 0.241-0.213 1.509 2.677-0.241 0.213-0.655-1.154-2.423 2.106-0.195-0.352 2.419-2.123z"></path>
<path d="M28.639 12.919c0.083-0.349 0.244-0.661 0.464-0.9 0.216-0.24 0.478-0.405 0.761-0.479 0.289-0.082 0.59-0.068 0.873 0.040 0.273 0.112 0.518 0.311 0.71 0.577 0.2 0.286 0.336 0.632 0.395 1.004 0.077 0.365 0.077 0.749 0 1.114-0.085 0.347-0.246 0.659-0.464 0.9-0.222 0.246-0.491 0.417-0.781 0.496s-0.592 0.063-0.876-0.046c-0.275-0.107-0.521-0.307-0.71-0.577-0.199-0.284-0.335-0.629-0.395-0.998-0.071-0.373-0.063-0.763 0.023-1.131v0zM29.247 14.754c0.155 0.219 0.356 0.381 0.58 0.467 0.231 0.083 0.476 0.093 0.711 0.029s0.454-0.201 0.635-0.398c0.171-0.196 0.298-0.445 0.367-0.721 0.065-0.292 0.071-0.599 0.018-0.895s-0.163-0.571-0.32-0.802c-0.162-0.22-0.369-0.382-0.599-0.467-0.234-0.077-0.481-0.077-0.715 0-0.236 0.056-0.455 0.194-0.631 0.398-0.173 0.197-0.3 0.448-0.367 0.727-0.063 0.293-0.063 0.601 0 0.894 0.051 0.286 0.161 0.551 0.32 0.767v0z"></path>
<path d="M28.286 19.618l1.202-0.577c0-0.104 0.028-0.208 0.051-0.317l0.227-1.044-0.984-0.317 0.088-0.41 3.138 1.044-0.316 1.46c-0.071 0.426-0.262 0.806-0.539 1.073-0.127 0.11-0.273 0.181-0.426 0.209s-0.309 0.012-0.456-0.048c-0.224-0.060-0.425-0.214-0.569-0.435s-0.224-0.497-0.225-0.782l-1.281 0.577 0.088-0.433zM29.841 19.779c0.054 0.123 0.128 0.23 0.217 0.317s0.191 0.149 0.299 0.186c0.109 0.036 0.222 0.044 0.334 0.025s0.219-0.067 0.315-0.14c0.205-0.205 0.345-0.493 0.395-0.814l0.223-1.039-1.574-0.525-0.223 1.039c-0.086 0.309-0.081 0.647 0.014 0.952v0z"></path>
<path d="M26.619 23.334l-0.237-0.225 1.393-2.279 2.59 2.441-1.346 2.21-0.237-0.225 1.137-1.864-0.928-0.871-1.017 1.668-0.232-0.219 1.040-1.668-0.961-0.906-1.202 1.939z"></path>
<path d="M25.533 27.932l-0.664 0.046v-0.277l0.664-0.006-0.357-0.687 0.181-0.144 0.353 0.692 0.288-0.773 0.2 0.133-0.316 0.727 0.664-0.046v0.283h-0.673l0.357 0.687-0.181 0.144-0.353-0.692-0.306 0.75-0.195-0.139 0.339-0.698z"></path>
<path d="M19.498 27.471l0.562 0.387c0.094-0.225 0.226-0.422 0.386-0.579s0.345-0.27 0.543-0.332c0.185-0.071 0.379-0.097 0.571-0.075 0.167 0.016 0.327 0.088 0.464 0.208 0.124 0.116 0.215 0.277 0.26 0.462 0.056 0.228 0.046 0.473-0.028 0.692-0.116 0.299-0.274 0.57-0.464 0.802 0.153 0.102 0.295 0.228 0.422 0.375 0.088 0.112 0.153 0.249 0.19 0.398 0.024 0.116 0.025 0.238 0.004 0.355s-0.064 0.227-0.125 0.32c-0.124 0.222-0.309 0.38-0.52 0.444-0.185 0.088-0.39 0.088-0.576 0-0.082-0.044-0.156-0.111-0.213-0.196s-0.099-0.186-0.121-0.294c-0.049-0.19-0.037-0.397 0.032-0.577 0.107-0.262 0.246-0.502 0.413-0.71l-1.119-0.773c-0.043 0.272-0.052 0.55-0.028 0.825h-0.283c-0.019-0.339 0.012-0.679 0.093-1.004l-0.585-0.404 0.121-0.323zM20.306 28.048l1.23 0.848c0.161-0.191 0.295-0.416 0.395-0.664 0.051-0.167 0.051-0.352 0-0.519-0.021-0.1-0.062-0.192-0.119-0.267s-0.128-0.132-0.206-0.165c-0.193-0.081-0.402-0.081-0.594 0-0.157 0.052-0.304 0.146-0.429 0.275s-0.226 0.292-0.295 0.475l0.019 0.017zM22.051 30.356c0.030-0.064 0.049-0.135 0.056-0.209s0-0.148-0.019-0.218c-0.028-0.114-0.080-0.217-0.149-0.3-0.118-0.124-0.247-0.23-0.385-0.317-0.141 0.173-0.264 0.367-0.367 0.577-0.056 0.131-0.069 0.284-0.037 0.427 0.015 0.066 0.041 0.127 0.076 0.18s0.079 0.096 0.128 0.126c0.118 0.055 0.249 0.055 0.367 0 0.126-0.042 0.236-0.138 0.311-0.271l0.019 0.006z"></path>
<path d="M13.839 31.919l0.065-4.039h0.33l-0.051 3.231 1.318-2.689h0.162l1.235 2.735 0.046-3.214h0.33l-0.060 4.039h-0.283l-1.365-3.018-1.444 2.96-0.283-0.006z"></path>
<path d="M12.223 27.696c0.212 0.251 0.364 0.571 0.439 0.924s0.069 0.724-0.016 1.073c-0.076 0.357-0.229 0.682-0.441 0.94-0.206 0.252-0.465 0.428-0.747 0.508-0.298 0.084-0.608 0.072-0.901-0.035-0.292-0.089-0.561-0.27-0.78-0.525-0.209-0.248-0.359-0.564-0.432-0.912-0.071-0.359-0.066-0.736 0.015-1.092s0.236-0.68 0.449-0.939c0.203-0.252 0.456-0.431 0.733-0.519 0.296-0.083 0.605-0.071 0.896 0.035 0.295 0.093 0.565 0.28 0.785 0.542zM10.64 27.494c-0.227 0.066-0.435 0.21-0.599 0.415-0.171 0.212-0.293 0.477-0.353 0.767-0.065 0.289-0.065 0.594 0 0.883 0.055 0.281 0.172 0.537 0.339 0.739 0.175 0.212 0.391 0.365 0.627 0.444 0.236 0.075 0.483 0.075 0.72 0 0.227-0.069 0.436-0.213 0.603-0.415 0.17-0.213 0.292-0.477 0.353-0.767 0.065-0.291 0.065-0.598 0-0.889-0.059-0.28-0.178-0.535-0.344-0.739-0.176-0.213-0.393-0.364-0.631-0.439-0.234-0.080-0.481-0.080-0.715 0z"></path>
<path d="M7.126 24.811l0.125 1.587c0.080 0.042 0.157 0.090 0.232 0.144l0.757 0.542 0.511-1.119 0.302 0.213-1.625 3.479-1.058-0.756c-0.313-0.195-0.56-0.523-0.696-0.923-0.050-0.181-0.067-0.373-0.050-0.563s0.070-0.372 0.152-0.534c0.108-0.253 0.279-0.455 0.487-0.577 0.212-0.109 0.446-0.131 0.668-0.063l-0.135-1.696 0.33 0.265zM6.597 26.634c-0.109 0.034-0.211 0.095-0.301 0.179s-0.165 0.19-0.221 0.311-0.092 0.255-0.105 0.394c-0.013 0.139-0.004 0.279 0.028 0.413 0.109 0.299 0.297 0.541 0.534 0.687l0.747 0.537 0.812-1.731-0.747-0.537c-0.215-0.2-0.479-0.3-0.747-0.283v0.029z"></path>
<path d="M4.378 22.105l0.209-0.26 1.602 2.048-2.321 2.816-1.546-1.985 0.214-0.26 1.314 1.679 0.794-0.998-1.151-1.489 0.223-0.265 1.175 1.5 0.864-1.044-1.374-1.743z"></path>
<path d="M0.928 19.837l0.111-0.796 0.218 0.040-0.125 0.819 0.617-0.283 0.074 0.254-0.627 0.265 0.515 0.542-0.149 0.208-0.497-0.577-0.116 0.819-0.223-0.052 0.13-0.819-0.622 0.277-0.070-0.225 0.622-0.271-0.515-0.537 0.153-0.208 0.501 0.542z"></path>
</symbol>
<symbol id="icon-mob-menu-btn" viewBox="0 0 32 32">
<path d="M6.4 11.733v-2.133h19.2v2.133h-19.2zM6.4 17.067h19.2v-2.133h-19.2v2.133zM6.4 22.4h19.2v-2.133h-19.2v2.133z"></path>
</symbol>
<symbol id="icon-linkedin" viewBox="0 0 32 32">
<path d="M31.992 32v-0.001h0.008v-11.736c0-5.741-1.236-10.164-7.948-10.164-3.227 0-5.392 1.771-6.276 3.449h-0.093v-2.913h-6.364v21.364h6.627v-10.579c0-2.785 0.528-5.479 3.977-5.479 3.399 0 3.449 3.179 3.449 5.657v10.401h6.62z"></path>
<path d="M0.528 10.636h6.635v21.364h-6.635v-21.364z"></path>
<path d="M3.843 0c-2.121 0-3.843 1.721-3.843 3.843s1.721 3.879 3.843 3.879c2.121 0 3.843-1.757 3.843-3.879-0.001-2.121-1.723-3.843-3.843-3.843v0z"></path>
</symbol>
<symbol id="icon-facebook" viewBox="0 0 32 32">
<path d="M21.329 5.313h2.921v-5.088c-0.504-0.069-2.237-0.225-4.256-0.225-4.212 0-7.097 2.649-7.097 7.519v4.481h-4.648v5.688h4.648v14.312h5.699v-14.311h4.46l0.708-5.688h-5.169v-3.919c0.001-1.644 0.444-2.769 2.735-2.769v0z"></path>
</symbol>
<symbol id="icon-twitter" viewBox="0 0 32 32">
<path d="M32 6.078c-1.19 0.522-2.458 0.868-3.78 1.036 1.36-0.812 2.398-2.088 2.886-3.626-1.268 0.756-2.668 1.29-4.16 1.588-1.204-1.282-2.92-2.076-4.792-2.076-3.632 0-6.556 2.948-6.556 6.562 0 0.52 0.044 1.020 0.152 1.496-5.454-0.266-10.28-2.88-13.522-6.862-0.566 0.982-0.898 2.106-0.898 3.316 0 2.272 1.17 4.286 2.914 5.452-1.054-0.020-2.088-0.326-2.964-0.808 0 0.020 0 0.046 0 0.072 0 3.188 2.274 5.836 5.256 6.446-0.534 0.146-1.116 0.216-1.72 0.216-0.42 0-0.844-0.024-1.242-0.112 0.85 2.598 3.262 4.508 6.13 4.57-2.232 1.746-5.066 2.798-8.134 2.798-0.538 0-1.054-0.024-1.57-0.090 2.906 1.874 6.35 2.944 10.064 2.944 12.072 0 18.672-10 18.672-18.668 0-0.29-0.010-0.57-0.024-0.848 1.302-0.924 2.396-2.078 3.288-3.406z"></path>
</symbol>
<symbol id="icon-instagram" viewBox="0 0 32 32">
<path d="M31.969 9.408c-0.075-1.7-0.35-2.869-0.744-3.882-0.406-1.075-1.032-2.038-1.851-2.838-0.8-0.813-1.769-1.444-2.832-1.844-1.019-0.394-2.182-0.669-3.882-0.744-1.713-0.081-2.257-0.1-6.601-0.1s-4.888 0.019-6.595 0.094c-1.7 0.075-2.869 0.35-3.882 0.744-1.075 0.406-2.038 1.031-2.838 1.85-0.813 0.8-1.444 1.769-1.844 2.832-0.394 1.019-0.669 2.182-0.744 3.882-0.081 1.713-0.1 2.257-0.1 6.601s0.019 4.888 0.094 6.595c0.075 1.7 0.35 2.869 0.744 3.882 0.406 1.075 1.038 2.038 1.85 2.838 0.8 0.813 1.769 1.444 2.832 1.844 1.019 0.394 2.182 0.669 3.882 0.744 1.706 0.075 2.25 0.094 6.595 0.094s4.888-0.019 6.595-0.094c1.7-0.075 2.869-0.35 3.882-0.744 2.151-0.832 3.851-2.532 4.682-4.682 0.394-1.019 0.669-2.182 0.744-3.882 0.075-1.707 0.094-2.251 0.094-6.595s-0.006-4.888-0.081-6.595zM29.087 22.473c-0.069 1.563-0.331 2.407-0.55 2.969-0.538 1.394-1.644 2.5-3.038 3.038-0.563 0.219-1.413 0.481-2.969 0.55-1.688 0.075-2.194 0.094-6.464 0.094s-4.782-0.019-6.464-0.094c-1.563-0.069-2.407-0.331-2.969-0.55-0.694-0.256-1.325-0.663-1.838-1.194-0.531-0.519-0.938-1.144-1.194-1.838-0.219-0.563-0.481-1.413-0.55-2.969-0.075-1.688-0.094-2.194-0.094-6.464s0.019-4.782 0.094-6.464c0.069-1.563 0.331-2.407 0.55-2.969 0.256-0.694 0.663-1.325 1.2-1.838 0.519-0.531 1.144-0.938 1.838-1.194 0.563-0.219 1.413-0.481 2.969-0.55 1.688-0.075 2.194-0.094 6.464-0.094 4.276 0 4.782 0.019 6.464 0.094 1.563 0.069 2.407 0.331 2.969 0.55 0.694 0.256 1.325 0.662 1.838 1.194 0.531 0.519 0.938 1.144 1.194 1.838 0.219 0.563 0.481 1.413 0.55 2.969 0.075 1.688 0.094 2.194 0.094 6.464s-0.019 4.77-0.094 6.458z"></path>
<path d="M16.059 7.783c-4.538 0-8.22 3.682-8.22 8.22s3.682 8.22 8.22 8.22c4.539 0 8.22-3.682 8.22-8.22s-3.682-8.22-8.22-8.22zM16.059 21.335c-2.944 0-5.332-2.388-5.332-5.332s2.388-5.332 5.332-5.332c2.944 0 5.332 2.388 5.332 5.332s-2.388 5.332-5.332 5.332v0z"></path>
<path d="M26.524 7.458c0 1.060-0.859 1.919-1.919 1.919s-1.919-0.859-1.919-1.919c0-1.060 0.859-1.919 1.919-1.919s1.919 0.859 1.919 1.919v0z"></path>
</symbol>
<symbol id="icon-mail" viewBox="0 0 24 24">
<path d="M3 7.921l8.427 5.899c0.34 0.235 0.795 0.246 1.147 0l8.426-5.899v10.079c0 0.272-0.11 0.521-0.295 0.705s-0.433 0.295-0.705 0.295h-16c-0.272 0-0.521-0.11-0.705-0.295s-0.295-0.433-0.295-0.705zM1 5.983c0 0.010 0 0.020 0 0.030v11.987c0 0.828 0.34 1.579 0.88 2.12s1.292 0.88 2.12 0.88h16c0.828 0 1.579-0.34 2.12-0.88s0.88-1.292 0.88-2.12v-11.988c0-0.010 0-0.020 0-0.030-0.005-0.821-0.343-1.565-0.88-2.102-0.541-0.54-1.292-0.88-2.12-0.88h-16c-0.828 0-1.579 0.34-2.12 0.88-0.537 0.537-0.875 1.281-0.88 2.103zM20.894 5.554l-8.894 6.225-8.894-6.225c0.048-0.096 0.112-0.183 0.188-0.259 0.185-0.185 0.434-0.295 0.706-0.295h16c0.272 0 0.521 0.11 0.705 0.295 0.076 0.076 0.14 0.164 0.188 0.259z"></path>
</symbol>
<symbol id="icon-phone" viewBox="0 0 24 24">
<path d="M23 16.92c0.016-0.714-0.236-1.404-0.673-1.943-0.46-0.566-1.129-0.967-1.925-1.080-0.8-0.098-1.695-0.314-2.586-0.646-0.433-0.159-0.893-0.218-1.344-0.174-0.663 0.064-1.307 0.349-1.819 0.855l-0.72 0.72c-1.77-1.117-3.36-2.667-4.583-4.589l0.726-0.726c0.322-0.33 0.563-0.726 0.707-1.156 0.212-0.632 0.214-1.336-0.039-2.011-0.289-0.753-0.518-1.644-0.644-2.595-0.104-0.714-0.456-1.345-0.963-1.804-0.539-0.486-1.256-0.779-2.027-0.771h-2.996c-0.088 0-0.182 0.004-0.273 0.012-0.824 0.075-1.542 0.478-2.033 1.066s-0.758 1.367-0.683 2.199c0.3 3.076 1.365 6.243 3.216 9.102 1.502 2.413 3.648 4.623 6.298 6.306 2.568 1.697 5.684 2.862 9.086 3.231 0.092 0.009 0.191 0.013 0.288 0.013 0.828-0.003 1.578-0.343 2.118-0.887s0.873-1.297 0.87-2.121zM21 16.92v3c0.001 0.28-0.109 0.53-0.29 0.712s-0.429 0.295-0.706 0.296c-3.149-0.336-5.961-1.391-8.263-2.912-2.428-1.543-4.359-3.537-5.702-5.694-1.697-2.62-2.655-5.481-2.924-8.238-0.024-0.268 0.064-0.526 0.229-0.724s0.403-0.33 0.678-0.355l3.088-0.005c0.271-0.003 0.507 0.094 0.687 0.256 0.17 0.154 0.288 0.366 0.323 0.608 0.142 1.072 0.408 2.117 0.757 3.025 0.081 0.216 0.080 0.447 0.010 0.658-0.049 0.145-0.131 0.281-0.242 0.395l-1.262 1.261c-0.324 0.324-0.379 0.814-0.162 1.201 1.584 2.785 3.839 4.957 6.381 6.378 0.397 0.222 0.882 0.144 1.195-0.166l1.27-1.27c0.166-0.164 0.377-0.257 0.598-0.279 0.152-0.015 0.31 0.005 0.459 0.060 1.022 0.381 2.070 0.636 3.034 0.754 0.241 0.034 0.462 0.166 0.615 0.355 0.147 0.181 0.231 0.412 0.226 0.682z"></path>
</symbol>
<symbol id="icon-map-pin" viewBox="0 0 24 24">
<path d="M22 10c0-2.761-1.12-5.263-2.929-7.071s-4.31-2.929-7.071-2.929-5.263 1.12-7.071 2.929-2.929 4.31-2.929 7.071c0 0.569 0.053 1.128 0.15 1.676 0.274 1.548 0.899 3.004 1.682 4.32 2.732 4.591 7.613 7.836 7.613 7.836 0.331 0.217 0.765 0.229 1.109 0 0 0 4.882-3.245 7.613-7.836 0.783-1.316 1.408-2.772 1.682-4.32 0.098-0.548 0.151-1.107 0.151-1.676zM20 10c0 0.444-0.041 0.887-0.119 1.328-0.221 1.25-0.737 2.478-1.432 3.646-1.912 3.214-5.036 5.747-6.369 6.74-1.398-0.916-4.588-3.477-6.53-6.74-0.695-1.168-1.211-2.396-1.432-3.646-0.077-0.441-0.118-0.884-0.118-1.328 0-2.209 0.894-4.208 2.343-5.657s3.448-2.343 5.657-2.343 4.208 0.894 5.657 2.343 2.343 3.448 2.343 5.657zM16 10c0-1.104-0.449-2.106-1.172-2.828s-1.724-1.172-2.828-1.172-2.106 0.449-2.828 1.172-1.172 1.724-1.172 2.828 0.449 2.106 1.172 2.828 1.724 1.172 2.828 1.172 2.106-0.449 2.828-1.172 1.172-1.724 1.172-2.828zM14 10c0 0.553-0.223 1.051-0.586 1.414s-0.861 0.586-1.414 0.586-1.051-0.223-1.414-0.586-0.586-0.861-0.586-1.414 0.223-1.051 0.586-1.414 0.861-0.586 1.414-0.586 1.051 0.223 1.414 0.586 0.586 0.861 0.586 1.414z"></path>
</symbol>
<symbol id="icon-close-btn" viewBox="0 0 32 32">
<path d="M23.733 10.304l-1.504-1.504-5.963 5.963-5.963-5.963-1.504 1.504 5.963 5.963-5.963 5.963 1.504 1.504 5.963-5.963 5.963 5.963 1.504-1.504-5.963-5.963 5.963-5.963z"></path>
</symbol>
</defs>
</svg>
