<svg width="71" height="64" viewBox="0 0 71 64" fill="none" xmlns="http://www.w3.org/2000/svg">
<g clip-path="url(#clip0_53_6)" filter="url(#filter0_d_53_6)">
<path d="M39.782 17.0343L38.5846 16.0246C38.3975 15.8572 38.1582 15.7781 37.9186 15.8046C37.679 15.831 37.4585 15.9609 37.3051 16.1659L20.7348 37.1886L20.9907 37.5017L25.0944 33.3213C24.9577 33.2605 24.8445 33.1487 24.7746 33.0053C24.7047 32.8619 24.6825 32.696 24.7118 32.5364C24.7412 32.3768 24.8202 32.2336 24.9352 32.1316C25.0501 32.0297 25.1938 31.9755 25.3412 31.9784C25.4741 31.9784 25.6036 32.0254 25.7105 32.1127C25.8174 32.1999 25.8962 32.3227 25.9353 32.4631L31.346 26.9196C31.4289 26.8459 31.5321 26.8056 31.6385 26.8056C31.7449 26.8056 31.8481 26.8459 31.9309 26.9196L32.2051 27.1418C32.2979 27.2152 32.4122 27.2476 32.5255 27.2327C32.6388 27.2177 32.743 27.1565 32.8175 27.061L39.8916 18.2965C39.9668 18.2095 40.0242 18.1056 40.0598 17.9919C40.0954 17.8782 40.1084 17.7574 40.098 17.6377C40.0876 17.5179 40.054 17.4021 39.9995 17.2979C39.9449 17.1938 39.8707 17.1039 39.782 17.0343V17.0343Z" fill="#303030"/>
<path d="M47.569 22.9514C43.9428 25.8019 39.8805 27.9056 35.5777 29.1613C31.3071 30.3612 26.9372 31.0784 22.5353 31.3019C22.624 32.0191 22.7833 32.7233 23.0106 33.4022C25.4966 35.8861 44.2147 31.6453 47.8706 26.7379C48.6475 25.7181 47.569 22.9514 47.569 22.9514ZM25.3412 33.3214C25.2183 33.3214 25.0981 33.2811 24.9959 33.2057C24.8937 33.1303 24.8141 33.023 24.767 32.8976C24.72 32.7721 24.7077 32.634 24.7317 32.5008C24.7557 32.3676 24.8148 32.2453 24.9018 32.1493C24.9887 32.0533 25.0994 31.9879 25.22 31.9614C25.3405 31.9349 25.4655 31.9485 25.5791 32.0004C25.6926 32.0524 25.7897 32.1404 25.858 32.2533C25.9263 32.3662 25.9627 32.499 25.9627 32.6348C25.964 32.7253 25.9487 32.8152 25.9179 32.8992C25.8871 32.9831 25.8414 33.0593 25.7834 33.1233C25.7255 33.1874 25.6565 33.2379 25.5805 33.2719C25.5046 33.3059 25.4232 33.3228 25.3412 33.3214V33.3214Z" fill="#303030"/>
<path d="M7.65665 21.4972L7.80288 20.8005L10.1792 21.3962C10.3753 21.7963 10.4965 22.2358 10.5357 22.6887C10.581 23.1683 10.5532 23.653 10.4534 24.1225C10.3351 24.774 10.064 25.3799 9.66738 25.8794C9.28999 26.3511 8.80338 26.7002 8.25987 26.8892C7.69969 27.08 7.10388 27.1044 6.53246 26.9599C5.95979 26.8232 5.43192 26.5159 5.00613 26.0713C4.58686 25.6442 4.2858 25.0945 4.13786 24.486C3.97374 23.825 3.97374 23.1275 4.13786 22.4665C4.23609 21.9718 4.41244 21.5002 4.65882 21.0731C4.89201 20.6847 5.20523 20.3628 5.57279 20.134L5.90182 20.6894C5.58678 20.9031 5.31635 21.1882 5.10839 21.5258C4.90042 21.8635 4.75966 22.2461 4.69538 22.6483C4.58204 23.1706 4.59148 23.7164 4.7228 24.2336C4.84561 24.7247 5.08921 25.1685 5.42656 25.5159C5.7733 25.8862 6.20712 26.1416 6.6787 26.253C7.13598 26.3949 7.61979 26.3949 8.07707 26.253C8.51513 26.0933 8.90858 25.8116 9.21954 25.4352C9.5391 25.0285 9.75932 24.5385 9.85932 24.0114C10.0097 23.3721 9.97127 22.6964 9.74964 22.0828L7.65665 21.4972Z" fill="#303030"/>
<path d="M12.829 15.1461L10.6994 18.2864L11.6134 20.0938L11.193 20.7198L7.81128 13.9041L8.20429 13.3083L15.0865 14.9441L14.6569 15.5702L12.829 15.1461ZM12.2258 14.9845L8.56987 14.0757L10.3978 17.7007L12.2258 14.9845Z" fill="#303030"/>
<path d="M12.2257 8.63334L12.7741 8.17896L16.2563 13.3286L19.1262 10.9557L19.4735 11.4707L16.0644 14.2879L12.2257 8.63334Z" fill="#303030"/>
<path d="M17.9838 4.42255L18.5961 4.11963L21.009 9.95591L24.2719 8.32013L24.5095 8.90578L20.6343 10.8546L17.9838 4.42255Z" fill="#303030"/>
<path d="M30.0299 6.74504L30.167 7.38117L25.7617 8.52217L24.2993 1.63577L28.5767 0.535156L28.7047 1.16119L25.0488 2.10025L25.5697 4.54381L28.7869 3.70573L28.924 4.33177L25.6977 5.15975L26.2461 7.71438L30.0299 6.74504Z" fill="#303030"/>
<path d="M36.3089 6.99757L34.7825 4.77615C34.612 4.78657 34.4412 4.78657 34.2707 4.77615L32.5524 4.83674L32.6164 7.07835H31.9401L31.7299 0.0101965L34.161 9.90987e-05C34.8484 -0.0700353 35.5358 0.134144 36.0986 0.575649C36.3358 0.786678 36.5266 1.05448 36.6564 1.35883C36.7862 1.66319 36.8518 1.99615 36.8481 2.33259C36.8748 2.83159 36.7563 3.32694 36.5099 3.74622C36.2473 4.14866 35.8762 4.44907 35.4497 4.6045L37.0492 6.96728L36.3089 6.99757ZM35.6691 3.67554C35.8333 3.50928 35.9608 3.30353 36.0416 3.07417C36.1225 2.84481 36.1545 2.59799 36.1352 2.35279C36.1399 2.10628 36.0938 1.86182 36.0004 1.6379C35.907 1.41398 35.7687 1.21647 35.596 1.06032C35.1747 0.744759 34.6681 0.598609 34.161 0.646331L32.4245 0.717012L32.5342 4.25109L34.2341 4.19051C34.7525 4.2117 35.2609 4.02924 35.6691 3.67554V3.67554Z" fill="#303030"/>
<path d="M41.1438 5.11937L40.8148 7.53264L40.1476 7.42157L40.4857 5.04868L38.5938 0L39.3067 0.121168L40.9244 4.42265L43.6664 0.858276L44.3061 1.00974L41.1438 5.11937Z" fill="#303030"/>
<path d="M50.1829 4.69524L50.9781 5.83624L50.6308 6.13916L49.8356 4.96787L49.3329 6.29062L48.9491 6.10887L49.4609 4.78611L48.1448 4.97796V4.49329L49.4426 4.33173L48.6383 3.19073L48.9948 2.88781L49.6985 4.03891L50.1921 2.70605L50.5851 2.88781L50.119 4.24085L51.4351 4.03891V4.53368L50.1829 4.69524Z" fill="#303030"/>
<path d="M53.2356 12.8336C53.0198 12.466 52.8852 12.0475 52.8426 11.6119L53.3818 11.3493C53.4223 11.7496 53.5408 12.1354 53.7291 12.4802C53.9333 12.8669 54.1997 13.2091 54.5152 13.49C54.8409 13.8346 55.2566 14.0571 55.7033 14.1261C55.8647 14.1426 56.0273 14.1154 56.177 14.0468C56.3268 13.9781 56.4591 13.8702 56.5625 13.7323C56.6383 13.6399 56.696 13.5313 56.7322 13.4131C56.7684 13.295 56.7821 13.1699 56.7727 13.0457C56.7424 12.7996 56.6678 12.5627 56.5533 12.349C56.3816 12.039 56.1955 11.7391 55.9958 11.4503C55.7525 11.0981 55.5325 10.7269 55.3377 10.3396C55.1888 10.0497 55.1072 9.72363 55.1001 9.39043C55.0995 9.01625 55.2268 8.6556 55.4565 8.38069C55.6557 8.11425 55.9185 7.91485 56.2151 7.80514C56.5465 7.69939 56.8983 7.69939 57.2297 7.80514C57.6566 7.95941 58.0513 8.20661 58.3904 8.53215C58.6718 8.79072 58.9207 9.08954 59.1307 9.42072C59.3249 9.72785 59.4701 10.0693 59.5603 10.4305L59.0393 10.7334C58.9485 10.3968 58.8129 10.0769 58.6372 9.78423C58.4621 9.52285 58.2561 9.28854 58.0248 9.08751C57.7039 8.74445 57.2894 8.52794 56.8458 8.47157C56.6827 8.45651 56.5189 8.48646 56.3689 8.55872C56.2189 8.63099 56.0876 8.7433 55.9867 8.88556C55.9089 8.97653 55.8499 9.08497 55.8136 9.20348C55.7773 9.32199 55.7646 9.44776 55.7764 9.57218C55.7978 9.82681 55.873 10.0724 55.9958 10.2891C56.1237 10.5213 56.3065 10.8243 56.5533 11.1878C56.7979 11.5319 57.018 11.8965 57.2114 12.2783C57.3635 12.5672 57.4483 12.8934 57.4581 13.2274C57.4588 13.6016 57.3315 13.9623 57.1017 14.2372C56.9018 14.5073 56.635 14.7073 56.334 14.8127C56.0032 14.9231 55.6502 14.9231 55.3195 14.8127C54.8895 14.6589 54.4918 14.4117 54.1496 14.0857C53.7806 13.731 53.4712 13.3071 53.2356 12.8336V12.8336Z" fill="#303030"/>
<path d="M62.4301 14.3079L61.1414 12.2884L61.6167 11.9148L64.5871 16.6L64.1118 16.9736L62.8231 14.9541L58.0522 18.6396L57.6683 18.0237L62.4301 14.3079Z" fill="#303030"/>
<path d="M60.3829 22.608C60.546 21.9977 60.863 21.4514 61.2968 21.0328C61.7212 20.6129 62.2382 20.3239 62.7957 20.1947C63.3641 20.0506 63.9569 20.0749 64.514 20.2654C65.0517 20.4618 65.5337 20.8098 65.9124 21.2751C66.3061 21.7755 66.574 22.3814 66.6893 23.0321C66.8406 23.6709 66.8406 24.342 66.6893 24.9809C66.5216 25.5888 66.2053 26.1339 65.7753 26.5561C65.3392 26.9873 64.8095 27.2864 64.2377 27.4244C63.6659 27.5625 63.0716 27.5346 62.5124 27.3437C61.9706 27.1568 61.4864 26.8072 61.114 26.3339C60.7221 25.8361 60.4543 25.234 60.3372 24.5871C60.1975 23.9341 60.2133 23.2523 60.3829 22.608V22.608ZM61.5802 25.8189C61.8853 26.2029 62.2807 26.486 62.7226 26.6368C63.1781 26.7828 63.6594 26.8001 64.1225 26.6872C64.5856 26.5743 65.0156 26.3348 65.3731 25.9906C65.7105 25.6477 65.9596 25.2122 66.0952 24.7284C66.2226 24.2176 66.2351 23.6801 66.1316 23.1627C66.028 22.6453 65.8116 22.1637 65.5011 21.7598C65.1825 21.374 64.775 21.0913 64.3221 20.9419C63.8609 20.8066 63.3757 20.8066 62.9146 20.9419C62.4492 21.0406 62.0184 21.282 61.6716 21.6386C61.3311 21.9827 61.0816 22.4225 60.9495 22.9109C60.8254 23.4236 60.8254 23.9633 60.9495 24.476C61.0496 24.977 61.2671 25.4401 61.5802 25.8189V25.8189Z" fill="#303030"/>
<path d="M59.6882 34.331L62.0554 33.3213C62.0554 33.1395 62.1103 32.9578 62.156 32.7659L62.6038 30.9383L60.6662 30.3829L60.8398 29.666L67.0183 31.4936L66.3968 34.0483C66.2568 34.7937 65.8809 35.4596 65.3366 35.9264C65.0865 36.1183 64.7996 36.2436 64.4983 36.2927C64.1971 36.3417 63.8896 36.3131 63.6 36.2091C63.159 36.1034 62.7637 35.8347 62.4796 35.4474C62.1954 35.06 62.0394 34.5772 62.0371 34.0786L59.5146 35.0883L59.6882 34.331ZM62.75 34.6137C62.8571 34.8283 63.0023 35.0168 63.177 35.1678C63.3517 35.3188 63.5522 35.4292 63.7665 35.4924C63.9808 35.5556 64.2044 35.5702 64.424 35.5355C64.6436 35.5008 64.8545 35.4173 65.0441 35.2902C65.4475 34.9323 65.7228 34.4278 65.821 33.8665L66.2597 32.049L63.1613 31.1301L62.7226 32.9477C62.554 33.4893 62.5637 34.0792 62.75 34.6137V34.6137Z" fill="#303030"/>
<path d="M56.4071 40.8337L55.941 40.4399L58.6829 36.4514L63.7829 40.7226L61.1323 44.5899L60.6662 44.1961L62.9054 40.9346L61.0775 39.4099L59.0759 42.3281L58.6189 41.9444L60.6662 39.0262L58.7743 37.441L56.4071 40.8337Z" fill="#303030"/>
<path d="M54.2684 48.8814L52.9614 48.9622V48.4776L54.2684 48.4675L53.5646 47.2659L53.9211 47.0134L54.6157 48.2251L55.1824 46.8721L55.5754 47.1043L54.9539 48.3766L56.2609 48.2958V48.7906H54.9356L55.6394 49.9922L55.2829 50.2446L54.5883 49.0329L53.9851 50.3456L53.6012 50.1032L54.2684 48.8814Z" fill="#303030"/>
<path d="M42.3868 48.0735L43.4927 48.7501C43.6781 48.3566 43.9369 48.011 44.2519 47.736C44.567 47.461 44.9312 47.2629 45.3206 47.1547C45.6839 47.0295 46.0659 46.9849 46.4448 47.0234C46.7736 47.0513 47.0894 47.1769 47.3588 47.3869C47.6023 47.5897 47.7815 47.8725 47.8706 48.1947C47.9808 48.5933 47.9614 49.0219 47.8158 49.4064C47.5864 49.9288 47.2773 50.4036 46.9018 50.8099C47.2031 50.9888 47.4826 51.2094 47.7335 51.4663C47.9059 51.6631 48.0342 51.9016 48.1083 52.163C48.1551 52.3667 48.158 52.5797 48.1167 52.7849C48.0755 52.9901 47.9912 53.1817 47.8706 53.3444C47.6266 53.7327 47.2626 54.0092 46.847 54.1219C46.482 54.2756 46.0786 54.2756 45.7137 54.1219C45.5514 54.0447 45.4075 53.9271 45.2933 53.7782C45.1791 53.6293 45.0978 53.4531 45.0556 53.2636C44.9598 52.9303 44.9827 52.5691 45.1196 52.2538C45.3294 51.7948 45.6039 51.3756 45.933 51.0119L43.7303 49.6588C43.6463 50.1343 43.6278 50.6211 43.6755 51.1027H43.118C43.0804 50.5097 43.1424 49.914 43.3008 49.3458L42.1492 48.639L42.3868 48.0735ZM43.9771 49.0833L46.3991 50.5676C46.7165 50.2327 46.9793 49.8399 47.176 49.4064C47.2764 49.1136 47.2764 48.7904 47.176 48.4976C47.1346 48.3227 47.0544 48.1619 46.9427 48.0297C46.831 47.8975 46.6913 47.7981 46.5362 47.7403C46.1568 47.5987 45.7458 47.5987 45.3663 47.7403C45.0563 47.8307 44.7679 47.9951 44.5216 48.2218C44.2753 48.4486 44.0769 48.7323 43.9406 49.053L43.9771 49.0833ZM47.4136 53.1222C47.4734 53.0106 47.5108 52.8862 47.5234 52.7574C47.536 52.6285 47.5235 52.4981 47.4868 52.375C47.4308 52.1756 47.3302 51.995 47.1943 51.8499C46.9616 51.6331 46.7071 51.4468 46.4357 51.2946C46.1586 51.5973 45.9161 51.9364 45.7137 52.3043C45.6032 52.5337 45.577 52.8014 45.6405 53.0515C45.6695 53.1671 45.7204 53.2745 45.7897 53.3668C45.859 53.459 45.9452 53.534 46.0427 53.5867C46.2754 53.6836 46.532 53.6836 46.7647 53.5867C47.0132 53.5135 47.2302 53.3453 47.3771 53.1121L47.4136 53.1222Z" fill="#303030"/>
<path d="M31.2455 55.8587L31.3734 48.7905H32.0224L31.9218 54.4451L34.5175 49.7397H34.8374L37.2686 54.5258L37.3599 48.9016H38.0089L37.8901 55.9698H37.3325L34.6455 50.6888L31.803 55.8688L31.2455 55.8587Z" fill="#303030"/>
<path d="M28.0648 48.4673C28.4828 48.9074 28.7818 49.4671 28.9287 50.084C29.0756 50.7008 29.0644 51.3507 28.8965 51.961C28.7464 52.5859 28.4464 53.1545 28.0283 53.6069C27.6219 54.0481 27.1124 54.3558 26.5568 54.4954C25.9706 54.6415 25.3605 54.6207 24.7837 54.4348C24.2088 54.2797 23.6799 53.9632 23.2482 53.516C22.8365 53.0815 22.5422 52.5292 22.3982 51.9206C22.2576 51.2915 22.268 50.6328 22.4283 50.0095C22.5886 49.3862 22.8932 48.8198 23.3122 48.3663C23.7113 47.9262 24.21 47.6124 24.7562 47.4576C25.3393 47.3119 25.9464 47.3327 26.5202 47.5181C27.101 47.6808 27.6334 48.0079 28.0648 48.4673V48.4673ZM24.9482 48.1139C24.5011 48.2289 24.0925 48.4809 23.7692 48.8409C23.4325 49.2114 23.1925 49.6753 23.0745 50.1838C22.9471 50.6892 22.9471 51.2234 23.0745 51.7287C23.1823 52.2204 23.4136 52.6684 23.7417 53.0212C24.0859 53.393 24.5108 53.6607 24.9756 53.7987C25.4404 53.9295 25.9275 53.9295 26.3923 53.7987C26.8397 53.6772 27.2498 53.4262 27.5804 53.0717C27.9153 52.6997 28.155 52.2363 28.275 51.7287C28.4028 51.22 28.4028 50.6825 28.275 50.1738C28.1581 49.684 27.9245 49.2377 27.5987 48.8813C27.2528 48.509 26.824 48.2443 26.3557 48.1139C25.8952 47.9732 25.4087 47.9732 24.9482 48.1139V48.1139Z" fill="#303030"/>
<path d="M18.0294 43.4186L18.2762 46.1954C18.433 46.2693 18.5856 46.3536 18.7332 46.4478L20.223 47.3969L21.2283 45.4381L21.8224 45.8117L18.6235 51.9004L16.5397 50.5776C15.9237 50.2357 15.4378 49.6631 15.1687 48.962C15.0694 48.6462 15.0358 48.3096 15.0707 47.9774C15.1055 47.6452 15.2077 47.326 15.3698 47.0435C15.5822 46.601 15.919 46.2467 16.3295 46.0338C16.7463 45.843 17.2073 45.8041 17.6456 45.9227L17.3805 42.9541L18.0294 43.4186ZM16.9875 46.6093C16.7729 46.6688 16.5713 46.7756 16.3948 46.9232C16.2184 47.0707 16.0707 47.2561 15.9606 47.4682C15.8505 47.6804 15.7803 47.9148 15.7542 48.1576C15.728 48.4004 15.7465 48.6465 15.8085 48.8813C16.0227 49.4039 16.3941 49.8284 16.8596 50.0828L18.3311 51.0219L19.9305 47.9927L18.459 47.0536C18.0361 46.7035 17.5153 46.5284 16.9875 46.5589V46.6093Z" fill="#303030"/>
<path d="M12.6187 38.6829L13.03 38.2285L16.1832 41.8131L11.6133 46.7406L8.56982 43.2671L8.99025 42.8127L11.5768 45.7511L13.1397 44.0042L10.873 41.3991L11.3117 40.9346L13.6241 43.5599L15.3241 41.7323L12.6187 38.6829Z" fill="#303030"/>
<path d="M5.82698 34.7147L6.04633 33.3213L6.4759 33.392L6.22912 34.8258L7.4447 34.331L7.59094 34.7753L6.35708 35.2398L7.37159 36.1889L7.07912 36.5524L6.10117 35.5427L5.87267 36.9765L5.43397 36.8857L5.68988 35.4518L4.46516 35.9365L4.32806 35.5427L5.55278 35.0681L4.53828 34.1291L4.83989 33.7656L5.82698 34.7147Z" fill="#303030"/>
</g>
<defs>
<filter id="filter0_d_53_6" x="0" y="0" width="71" height="64" filterUnits="userSpaceOnUse" color-interpolation-filters="sRGB">
<feFlood flood-opacity="0" result="BackgroundImageFix"/>
<feColorMatrix in="SourceAlpha" type="matrix" values="0 0 0 0 0 0 0 0 0 0 0 0 0 0 0 0 0 0 127 0" result="hardAlpha"/>
<feOffset dy="4"/>
<feGaussianBlur stdDeviation="2"/>
<feComposite in2="hardAlpha" operator="out"/>
<feColorMatrix type="matrix" values="0 0 0 0 0 0 0 0 0 0 0 0 0 0 0 0 0 0 0.25 0"/>
<feBlend mode="normal" in2="BackgroundImageFix" result="effect1_dropShadow_53_6"/>
<feBlend mode="normal" in="SourceGraphic" in2="effect1_dropShadow_53_6" result="shape"/>
</filter>
<clipPath id="clip0_53_6">
<rect width="63" height="56" fill="white" transform="translate(4)"/>
</clipPath>
</defs>
</svg>
